<?xml version="1.0" encoding="iso-8859-1"?>
<!-- Generator: Adobe Illustrator 19.0.0, SVG Export Plug-In . SVG Version: 6.00 Build 0)  -->
<svg version="1.1" id="Capa_1" xmlns="http://www.w3.org/2000/svg" xmlns:xlink="http://www.w3.org/1999/xlink" x="0px" y="0px"
	 viewBox="0 0 512 512" style="enable-background:new 0 0 512 512;" xml:space="preserve">
<g>
	<path style="fill:#7F8C8D;" d="M97.103,0h317.793c14.626,0,26.483,11.857,26.483,26.483v459.034
		c0,14.626-11.857,26.483-26.483,26.483H97.103c-14.626,0-26.483-11.857-26.483-26.483V26.483C70.621,11.857,82.477,0,97.103,0z"/>
	<g>
		<path style="fill:#5E5F62;" d="M105.931,44.138c-2.348,0.023-4.607-0.9-6.267-2.56c-1.66-1.66-2.583-3.919-2.56-6.267
			c0.031-2.338,0.945-4.577,2.56-6.268c2.113-2.019,5.064-2.905,7.94-2.383c0.586,0.081,1.154,0.259,1.681,0.526
			c0.562,0.194,1.095,0.462,1.586,0.797c0.464,0.325,0.908,0.679,1.328,1.06c3.414,3.481,3.414,9.054,0,12.534
			c-0.42,0.379-0.863,0.732-1.328,1.056c-0.491,0.335-1.024,0.603-1.586,0.797c-0.528,0.266-1.096,0.445-1.681,0.53
			C107.052,44.062,106.492,44.122,105.931,44.138z"/>
		<path style="fill:#5E5F62;" d="M406.069,44.138c-2.348,0.023-4.607-0.9-6.267-2.56c-1.66-1.66-2.583-3.919-2.56-6.267
			c0.014-2.341,0.931-4.586,2.56-6.268l1.319-1.06c0.494-0.335,1.03-0.604,1.595-0.797c0.525-0.267,1.09-0.444,1.673-0.526
			c1.102-0.267,2.252-0.267,3.353,0c0.586,0.081,1.154,0.259,1.681,0.526c0.562,0.194,1.095,0.462,1.586,0.797
			c0.44,0.353,0.888,0.707,1.328,1.06c0.353,0.44,0.707,0.879,1.06,1.323c0.331,0.492,0.598,1.026,0.793,1.586
			c0.256,0.5,0.433,1.036,0.526,1.59c0.103,0.584,0.163,1.175,0.181,1.767c-0.013,0.563-0.074,1.124-0.181,1.677
			c-0.079,0.585-0.257,1.152-0.526,1.677c-0.176,0.542-0.445,1.049-0.793,1.5c-0.353,0.53-0.707,0.97-1.06,1.414
			c-0.44,0.353-0.888,0.707-1.328,1.056c-0.491,0.335-1.024,0.603-1.586,0.797c-0.528,0.266-1.096,0.445-1.681,0.53
			C407.189,44.063,406.63,44.122,406.069,44.138z"/>
		<path style="fill:#5E5F62;" d="M406.069,485.517c-0.564-0.016-1.126-0.075-1.681-0.177c-0.583-0.085-1.147-0.264-1.672-0.53
			c-0.565-0.194-1.101-0.462-1.595-0.797c-0.44-0.35-0.879-0.703-1.319-1.056c-1.629-1.682-2.546-3.927-2.56-6.268
			c0.014-1.155,0.254-2.296,0.707-3.358c0.426-1.08,1.055-2.067,1.854-2.909c3.539-3.267,8.995-3.267,12.534,0
			c0.353,0.44,0.707,0.879,1.06,1.41c0.347,0.452,0.615,0.959,0.793,1.5c0.453,1.062,0.693,2.203,0.707,3.358
			c-0.013,0.592-0.074,1.181-0.181,1.763c-0.093,0.554-0.27,1.09-0.526,1.59c-0.194,0.562-0.461,1.097-0.793,1.591
			c-0.353,0.44-0.707,0.879-1.06,1.323c-0.44,0.353-0.888,0.707-1.328,1.056c-0.491,0.335-1.024,0.603-1.586,0.797
			c-0.528,0.266-1.096,0.445-1.681,0.53C407.189,485.442,406.63,485.501,406.069,485.517z"/>
		<path style="fill:#5E5F62;" d="M105.931,485.517c-1.153-0.014-2.293-0.254-3.353-0.707c-1.091-0.407-2.083-1.038-2.914-1.854
			c-3.414-3.481-3.414-9.054,0-12.534c2.113-2.019,5.064-2.905,7.94-2.383c0.586,0.081,1.154,0.259,1.681,0.526
			c0.562,0.194,1.095,0.462,1.586,0.797c0.44,0.353,0.888,0.707,1.328,1.06c3.414,3.481,3.414,9.054,0,12.534
			C110.514,484.581,108.271,485.497,105.931,485.517z"/>
	</g>
	<path style="fill:#BDC3C7;" d="M379.586,256c-0.009,7.026,2.778,13.768,7.746,18.736c4.969,4.968,11.71,7.756,18.736,7.746v132.414
		l-61.793,61.793H167.724l-61.793-61.793V282.483c14.626,0,26.483-11.857,26.483-26.483c0-14.626-11.857-26.483-26.483-26.483
		V97.103l61.793-61.793h176.552l61.793,61.793v132.414c-7.027-0.009-13.768,2.778-18.737,7.746
		C382.364,242.232,379.577,248.973,379.586,256z"/>
	<circle style="fill:#285680;" cx="176.552" cy="388.414" r="35.31"/>
	<g>
		<path style="fill:#4482C3;" d="M176.552,397.241c-2.337-0.035-4.575-0.949-6.268-2.56c-0.378-0.421-0.732-0.862-1.06-1.323
			c-0.336-0.492-0.603-1.027-0.793-1.591c-0.255-0.501-0.435-1.037-0.535-1.59c-0.096-0.583-0.153-1.172-0.172-1.763
			c0-4.875,3.952-8.828,8.828-8.828s8.828,3.952,8.828,8.828c-0.013,0.592-0.074,1.181-0.181,1.763
			c-0.093,0.554-0.27,1.09-0.526,1.59c-0.194,0.562-0.461,1.097-0.793,1.591c-0.328,0.461-0.682,0.903-1.06,1.324
			C181.126,396.291,178.888,397.205,176.552,397.241z"/>
		<path style="fill:#4482C3;" d="M185.379,70.621h141.241c4.875,0,8.828,3.952,8.828,8.828v26.483c0,4.875-3.952,8.828-8.828,8.828
			H185.379c-4.875,0-8.828-3.952-8.828-8.828V79.448C176.552,74.573,180.504,70.621,185.379,70.621z"/>
	</g>
	<path style="fill:#E6E7E8;" d="M335.448,158.897v194.207c-0.014,4.869-3.958,8.813-8.828,8.828h-65.236
		c-3.494,0.009-6.909-1.037-9.799-3.001l-67.178-44.756c-4.922-3.247-7.876-8.757-7.857-14.654V158.897
		c0.014-4.869,3.958-8.813,8.828-8.828h141.241C331.49,150.083,335.434,154.027,335.448,158.897z"/>
	<g>
		<path style="fill:#4482C3;" d="M220.69,211.862c-2.341,0.001-4.587-0.929-6.243-2.585c-1.656-1.656-2.585-3.901-2.585-6.243
			v-17.655c0-4.875,3.952-8.828,8.828-8.828s8.828,3.952,8.828,8.828v17.655c0.001,2.341-0.929,4.587-2.585,6.243
			C225.277,210.933,223.031,211.863,220.69,211.862z"/>
		<path style="fill:#4482C3;" d="M256,211.862c-2.341,0.001-4.587-0.929-6.243-2.585c-1.656-1.656-2.585-3.901-2.585-6.243v-17.655
			c0-4.875,3.952-8.828,8.828-8.828s8.828,3.952,8.828,8.828v17.655c0.001,2.341-0.929,4.587-2.585,6.243
			C260.587,210.933,258.341,211.863,256,211.862z"/>
		<path style="fill:#4482C3;" d="M291.31,211.862c-2.341,0.001-4.587-0.929-6.243-2.585c-1.656-1.656-2.585-3.901-2.585-6.243
			v-17.655c0-4.875,3.952-8.828,8.828-8.828s8.828,3.952,8.828,8.828v17.655c0.001,2.341-0.929,4.587-2.585,6.243
			C295.897,210.933,293.652,211.863,291.31,211.862z"/>
		<path style="fill:#4482C3;" d="M335.448,317.793v17.655h-61.793c-4.875,0-8.828-3.952-8.828-8.828s3.952-8.828,8.828-8.828
			H335.448z"/>
	</g>
	<g>
		<path style="fill:#285680;" d="M229.517,105.931v8.828h-17.655v-8.828c0-4.875,3.952-8.828,8.828-8.828
			S229.517,101.056,229.517,105.931z"/>
		<path style="fill:#285680;" d="M264.828,105.931v8.828h-17.655v-8.828c0-4.875,3.952-8.828,8.828-8.828
			S264.828,101.056,264.828,105.931z"/>
		<path style="fill:#285680;" d="M300.138,105.931v8.828h-17.655v-8.828c0-4.875,3.952-8.828,8.828-8.828
			S300.138,101.056,300.138,105.931z"/>
	</g>
</g>
<g>
</g>
<g>
</g>
<g>
</g>
<g>
</g>
<g>
</g>
<g>
</g>
<g>
</g>
<g>
</g>
<g>
</g>
<g>
</g>
<g>
</g>
<g>
</g>
<g>
</g>
<g>
</g>
<g>
</g>
</svg>
