<?xml version="1.0" encoding="iso-8859-1"?>
<!-- Generator: Adobe Illustrator 19.0.0, SVG Export Plug-In . SVG Version: 6.00 Build 0)  -->
<svg version="1.1" id="Capa_1" xmlns="http://www.w3.org/2000/svg" xmlns:xlink="http://www.w3.org/1999/xlink" x="0px" y="0px"
	 viewBox="0 0 512 512" style="enable-background:new 0 0 512 512;" xml:space="preserve">
<g>
	<rect y="17.655" style="fill:#67B9CC;" width="512" height="317.793"/>
	<rect x="194.207" y="370.759" style="fill:#A5A5A4;" width="123.586" height="123.586"/>
	<g>
		<path style="fill:#5E5F62;" d="M123.586,476.69h264.828c14.626,0,26.483,11.857,26.483,26.483V512H97.103v-8.828
			C97.103,488.546,108.96,476.69,123.586,476.69z"/>
		<path style="fill:#5E5F62;" d="M264.828,441.379h-17.655c-4.875,0-8.828-3.952-8.828-8.828s3.952-8.828,8.828-8.828h17.655
			c4.875,0,8.828,3.952,8.828,8.828S269.703,441.379,264.828,441.379z"/>
		<path style="fill:#5E5F62;" d="M512,317.793v52.966c-0.029,9.739-7.916,17.627-17.655,17.655H17.655
			C7.916,388.385,0.029,380.497,0,370.759v-52.966H512z"/>
		<path style="fill:#5E5F62;" d="M512,17.655V35.31H0V17.655C0.028,7.916,7.916,0.028,17.655,0h476.69
			C504.084,0.028,511.972,7.916,512,17.655z"/>
	</g>
	<path style="fill:#71C285;" d="M44.138,361.931c-2.337-0.035-4.575-0.949-6.268-2.56c-0.779-0.859-1.406-1.844-1.854-2.914
		c-0.943-2.138-0.943-4.573,0-6.711c0.448-1.069,1.075-2.053,1.854-2.91c3.539-3.267,8.995-3.267,12.534,0
		c0.779,0.857,1.406,1.841,1.854,2.909c0.943,2.138,0.943,4.573,0,6.711c-0.448,1.07-1.075,2.055-1.854,2.914
		C48.711,360.98,46.474,361.895,44.138,361.931z"/>
	<g>
		<path style="fill:#D1D4D1;" d="M79.448,361.931c-3.569-0.014-6.782-2.168-8.151-5.465s-0.626-7.092,1.883-9.631
			c2.828-2.86,7.227-3.457,10.715-1.455c3.488,2.003,5.191,6.103,4.147,9.987C86.999,359.253,83.47,361.947,79.448,361.931z"/>
		<path style="fill:#D1D4D1;" d="M114.759,361.931c-2.348,0.023-4.607-0.9-6.267-2.56c-1.66-1.66-2.583-3.919-2.56-6.267
			c0.014-1.155,0.254-2.296,0.707-3.358c0.448-1.068,1.075-2.052,1.854-2.909c2.113-2.084,5.126-2.978,8.035-2.383
			c0.552,0.096,1.086,0.273,1.586,0.526c0.542,0.177,1.05,0.447,1.5,0.797c1.475,0.952,2.617,2.34,3.267,3.97
			c0.453,1.062,0.693,2.203,0.707,3.358c-0.028,2.355-0.978,4.605-2.647,6.268c-0.407,0.395-0.852,0.748-1.328,1.056
			c-0.45,0.351-0.958,0.62-1.5,0.797c-0.5,0.252-1.035,0.431-1.586,0.53C115.941,361.851,115.351,361.91,114.759,361.931z"/>
	</g>
	<g>
		<path style="fill:#B0D3F0;" d="M35.31,132.414c-3.57-0.001-6.788-2.152-8.154-5.45c-1.366-3.298-0.611-7.094,1.913-9.619
			l26.483-26.483c3.456-3.394,9.001-3.369,12.426,0.056c3.425,3.425,3.45,8.97,0.056,12.426l-26.483,26.483
			C39.898,131.486,37.652,132.416,35.31,132.414z"/>
		<path style="fill:#B0D3F0;" d="M88.276,79.448c-2.337-0.035-4.575-0.949-6.268-2.56c-0.378-0.421-0.732-0.862-1.06-1.323
			c-0.336-0.492-0.603-1.027-0.793-1.591c-0.255-0.501-0.435-1.037-0.535-1.59c-0.1-0.583-0.157-1.172-0.172-1.763
			c0.031-2.338,0.945-4.577,2.56-6.268c2.12-2.072,5.127-2.964,8.035-2.383c0.552,0.096,1.086,0.273,1.586,0.526
			c0.562,0.194,1.095,0.462,1.586,0.797c0.44,0.353,0.888,0.707,1.328,1.06c1.612,1.693,2.526,3.931,2.561,6.267
			c-0.013,0.592-0.074,1.181-0.181,1.763c-0.093,0.554-0.27,1.09-0.526,1.59c-0.194,0.562-0.461,1.097-0.793,1.591
			c-0.353,0.44-0.707,0.879-1.06,1.323c-0.44,0.353-0.888,0.707-1.328,1.056c-0.491,0.335-1.024,0.603-1.586,0.797
			c-0.5,0.252-1.035,0.431-1.586,0.53C89.459,79.373,88.868,79.432,88.276,79.448z"/>
		<path style="fill:#B0D3F0;" d="M44.138,176.552c-3.57-0.001-6.788-2.152-8.154-5.45c-1.366-3.298-0.611-7.094,1.913-9.619
			L135,64.38c3.456-3.394,9.001-3.369,12.426,0.056c3.425,3.425,3.45,8.97,0.056,12.426l-97.103,97.103
			C48.726,175.624,46.48,176.554,44.138,176.552z"/>
	</g>
</g>
<g>
</g>
<g>
</g>
<g>
</g>
<g>
</g>
<g>
</g>
<g>
</g>
<g>
</g>
<g>
</g>
<g>
</g>
<g>
</g>
<g>
</g>
<g>
</g>
<g>
</g>
<g>
</g>
<g>
</g>
</svg>
