<?xml version="1.0" encoding="iso-8859-1"?>
<!-- Generator: Adobe Illustrator 19.0.0, SVG Export Plug-In . SVG Version: 6.00 Build 0)  -->
<svg version="1.1" id="Capa_1" xmlns="http://www.w3.org/2000/svg" xmlns:xlink="http://www.w3.org/1999/xlink" x="0px" y="0px"
	 viewBox="0 0 512 512" style="enable-background:new 0 0 512 512;" xml:space="preserve">
<g>
	<path style="fill:#3F5C6C;" d="M481.898,134.444c-3.055-11.589-13.527-19.67-25.512-19.686h-23.835V88.276
		c-0.028-9.739-7.916-17.627-17.655-17.655h-8.828V52.966c-0.028-9.739-7.916-17.627-17.655-17.655H123.586
		c-9.739,0.028-17.627,7.916-17.655,17.655v17.655h-8.828c-9.739,0.028-17.627,7.916-17.655,17.655v26.483H55.614
		c-11.985,0.016-22.457,8.097-25.512,19.686L0,251.321v181.23c-0.003,9.366,3.717,18.348,10.339,24.971
		c6.623,6.622,15.605,10.342,24.971,10.339H476.69c9.366,0.003,18.348-3.717,24.971-10.339c6.622-6.623,10.342-15.605,10.339-24.971
		v-181.23L481.898,134.444z"/>
	<path style="fill:#BDC3C7;" d="M512,256v70.621H0L0,256c-0.003-9.366,3.717-18.349,10.339-24.971
		c6.623-6.623,15.605-10.342,24.971-10.339H476.69c9.366-0.003,18.349,3.717,24.971,10.339C508.284,237.651,512.003,246.634,512,256
		z"/>
	<path style="fill:#2C3E50;" d="M414.897,379.586v17.655H97.104v-17.655c0.028-9.739,7.916-17.627,17.655-17.655h282.483
		C406.98,361.96,414.868,369.847,414.897,379.586z"/>
	<polygon style="fill:#35495E;" points="414.897,397.241 414.897,467.862 389.12,467.862 122.88,467.862 97.104,467.862 
		97.104,397.241 	"/>
	<path style="fill:#FDD7AD;" d="M388.266,512H123.734c-2.71,0.029-5.284-1.183-6.988-3.291c-1.704-2.107-2.35-4.878-1.754-7.522
		l24.379-103.946h233.258l24.379,103.946c0.596,2.644-0.05,5.415-1.754,7.522C393.55,510.817,390.976,512.029,388.266,512z"/>
	<circle style="fill:#46B29D;" cx="52.966" cy="273.655" r="17.655"/>
	<path style="fill:#41767F;" d="M432.552,88.276v61.793H79.449V88.276c0.028-9.739,7.916-17.627,17.655-17.655h317.793
		C424.636,70.649,432.524,78.537,432.552,88.276z"/>
	<path style="fill:#3F5C6C;" d="M406.069,52.966v17.655H105.931V52.966c0.028-9.739,7.916-17.627,17.655-17.655h264.828
		C398.153,35.339,406.041,43.227,406.069,52.966z"/>
	<path style="fill:#FDD7AD;" d="M150.069,0h211.862c4.875,0,8.828,3.952,8.828,8.828v141.241H141.242V8.828
		C141.242,3.952,145.194,0,150.069,0z"/>
	<path style="fill:#35495E;" d="M114.759,220.69h282.483v52.966c0,9.751-7.905,17.655-17.655,17.655H132.414
		c-9.751,0-17.655-7.904-17.655-17.655V220.69z"/>
	<path style="fill:#95A5A5;" d="M211.862,256h88.276c9.751,0,17.655,7.904,17.655,17.655v17.655H194.207v-17.655
		C194.207,263.904,202.112,256,211.862,256z"/>
	<g>
		<path style="fill:#2C3E50;" d="M397.242,220.69H114.759l5.484-21.937c1.965-7.859,9.027-13.373,17.128-13.373h237.258
			c8.101,0,15.163,5.514,17.128,13.373L397.242,220.69z"/>
		<path style="fill:#2C3E50;" d="M450.207,158.897H61.793c-4.875,0-8.828-3.952-8.828-8.828s3.952-8.828,8.828-8.828h388.414
			c4.875,0,8.828,3.952,8.828,8.828S455.082,158.897,450.207,158.897z"/>
	</g>
</g>
<g>
</g>
<g>
</g>
<g>
</g>
<g>
</g>
<g>
</g>
<g>
</g>
<g>
</g>
<g>
</g>
<g>
</g>
<g>
</g>
<g>
</g>
<g>
</g>
<g>
</g>
<g>
</g>
<g>
</g>
</svg>
